<svg width="881" height="955" viewBox="0 0 881 955" fill="none" xmlns="http://www.w3.org/2000/svg">
<g id="Laptop" clip-path="url(#clip0)">
<g id="Screen">
<path id="Subtract" fill-rule="evenodd" clip-rule="evenodd" d="M231.607 0L802.24 185.41V535.41L231.607 350V0ZM250.628 26.1803L783.219 199.23V509.23L250.628 336.18V26.1803Z" fill="#F3A5A5"/>
<path id="1 3" d="M221 360.607V10.6066L231.607 0V350L221 360.607Z" fill="#F3A5A5"/>
<path id="5 7" d="M240.021 346.787V36.7869L250.628 26.1803V336.18L240.021 346.787Z" fill="#F3A5A5"/>
<path id="3 2" d="M791.634 546.017L221 360.607L231.607 350L802.241 535.41L791.634 546.017Z" fill="#F3A5A5"/>
<path id="7 6" d="M772.613 519.836L240.021 346.787L250.628 336.18L783.219 509.23L772.613 519.836Z" fill="#F3A5A5"/>
<path id="4 5" d="M240.021 36.7869L772.613 209.836L783.219 199.23L250.628 26.1803L240.021 36.7869Z" fill="#F3A5A5"/>
<path id="0 1" d="M221 10.6066L791.634 196.017L802.241 185.41L231.607 0L221 10.6066Z" fill="#F3A5A5"/>
<path id="6 4" d="M772.613 209.836V519.836L783.219 509.23V199.23L772.613 209.836Z" fill="#F3A5A5"/>
<path id="2 0" d="M791.634 196.017V546.017L802.241 535.41V185.41L791.634 196.017Z" fill="#F3A5A5"/>
<path id="Subtract_2" fill-rule="evenodd" clip-rule="evenodd" d="M221 10.6066L791.634 196.017V546.017L221 360.607V10.6066ZM240.021 36.7869L772.613 209.836V519.836L240.021 346.787V36.7869Z" fill="#9EC6EB"/>
</g>
<g id="artWindow">
<rect id="Rectangle 5" x="0.951057" y="1.30902" width="598" height="348" transform="matrix(0.951057 0.309017 0 1 15.0465 -0.293893)" fill="#F3A5A5" fill-opacity="0.8" stroke="black" stroke-width="2"/>
<rect id="Rectangle 6" x="0.951057" y="1.30902" width="598" height="31" transform="matrix(0.951057 0.309017 0 1 15.0465 -0.293893)" fill="white" stroke="black" stroke-width="2"/>
<circle id="Ellipse 3" r="7" transform="matrix(0.951057 0.309017 0 1 34.9722 23.4894)" fill="#F3A5A5"/>
<circle id="Ellipse 4" r="7" transform="matrix(0.951057 0.309017 0 1 57.7975 30.9058)" fill="#F3A5A5"/>
<path id="Vector 2" d="M443.927 172.367V310.74M443.927 489.367V310.74M443.927 310.74L585.634 356.783" stroke="black" stroke-width="2"/>
<path id="Vector 3" d="M43.5317 42.2705V359.27" stroke="black" stroke-width="2"/>
<rect id="Rectangle 7" width="304" height="280" transform="matrix(0.951057 0.309017 0 1 99.644 75.5025)" fill="white"/>
<rect id="Rectangle 8" width="101" height="101" transform="matrix(0.951057 0.309017 0 1 466.752 194.783)" fill="url(#paint0_linear)"/>
<path id="Polygon 1" d="M288.568 258.953L173.204 264.512L195.434 145.164L288.568 258.953Z" fill="#F0B2B2"/>
<rect id="Rectangle 9" width="97" height="97" transform="matrix(0.931266 0.505526 -0.193006 0.91648 234.395 243.286)" fill="#ACCCEA"/>
</g>
<g id="codeWindow">
<rect id="Rectangle 3" x="0.951057" y="1.30902" width="598" height="348" transform="matrix(0.951057 0.309017 0 1 310.047 234.706)" fill="#9EC6EB" fill-opacity="0.8" stroke="black" stroke-width="2"/>
<rect id="Rectangle 4" x="0.951057" y="1.30902" width="598" height="31" transform="matrix(0.951057 0.309017 0 1 310.047 234.706)" fill="white" stroke="black" stroke-width="2"/>
<circle id="Ellipse 1" r="7" transform="matrix(0.951057 0.309017 0 1 329.972 258.489)" fill="#9EC6EB"/>
<circle id="Ellipse 2" r="7" transform="matrix(0.951057 0.309017 0 1 352.798 265.906)" fill="#9EC6EB"/>
<path id="print(&#226;&#128;&#156;Hello World!&#226;&#128;&#157;)" d="M473.842 350.849L478.159 352.251V353.29C479.216 352.686 480.508 352.632 482.033 353.128C483.819 353.708 485.276 354.828 486.402 356.488C487.547 358.155 488.119 359.835 488.119 361.531C488.119 363.408 487.495 364.764 486.246 365.598C485.015 366.438 483.62 366.604 482.06 366.097C480.586 365.618 479.286 364.694 478.159 363.326V366.552L481.903 367.769V370.011L473.842 367.392V365.149L475.896 365.817V353.758L473.842 353.091V350.849ZM478.055 358.206C478.055 359.5 478.471 360.665 479.303 361.701C480.135 362.737 481.037 363.413 482.007 363.728C483.03 364.061 483.906 363.944 484.634 363.379C485.362 362.813 485.726 361.938 485.726 360.753C485.726 359.678 485.406 358.626 484.764 357.597C484.123 356.568 483.212 355.862 482.033 355.479C480.889 355.107 479.936 355.199 479.173 355.753C478.427 356.294 478.055 357.112 478.055 358.206ZM491.031 356.434L496.18 358.107V360.13C496.666 359.796 497.073 359.546 497.403 359.379C497.749 359.218 498.244 359.105 498.885 359.04C499.526 358.957 500.194 359.028 500.887 359.254C501.494 359.451 502.058 359.743 502.578 360.131C503.098 360.519 503.462 360.837 503.67 361.087C503.878 361.337 504.129 361.665 504.424 362.071L502.11 363.178C501.676 362.253 501.122 361.681 500.445 361.461C500.237 361.394 500.012 361.366 499.769 361.379C499.544 361.378 499.318 361.405 499.093 361.46C498.868 361.514 498.634 361.593 498.391 361.696C498.166 361.805 497.958 361.92 497.767 362.04C497.576 362.142 497.377 362.26 497.169 362.393C496.978 362.531 496.822 362.645 496.701 362.733C496.579 362.821 496.467 362.912 496.363 363.006L496.18 363.138V368.252L500.991 369.815V372.057L490.797 368.745V366.502L493.918 367.516V359.614L491.031 358.676V356.434ZM507.779 361.876L513.76 363.819V373.963L518.103 375.375V377.617L507.077 374.034V371.792L511.498 373.228V365.326L507.779 364.118V361.876ZM511.004 360.544V356.935L513.76 357.831V361.44L511.004 360.544ZM520.99 366.168L525.359 367.588V368.736C526.746 368.166 528.002 368.064 529.129 368.43C530.412 368.847 531.444 369.638 532.224 370.803C533.004 371.968 533.394 373.279 533.394 374.738V380.343L535.501 381.027V383.27L528.947 381.14V378.898L531.132 379.608V374.112C531.132 373.346 530.958 372.652 530.612 372.029C530.265 371.406 529.788 370.996 529.181 370.798C528.731 370.652 528.245 370.613 527.725 370.681C527.205 370.73 526.824 370.807 526.581 370.91C526.338 370.996 525.931 371.164 525.359 371.416V377.732L527.335 378.374V380.616L520.938 378.538V376.296L523.096 376.997V369.095L520.99 368.41V366.168ZM540.13 368.832L542.392 369.567V373.396L548.321 375.322V377.564L542.392 375.638V380.231C542.392 380.742 542.392 381.106 542.392 381.325C542.409 381.55 542.453 381.855 542.522 382.242C542.592 382.611 542.687 382.888 542.808 383.074C542.947 383.265 543.146 383.466 543.406 383.678C543.684 383.896 544.022 384.07 544.421 384.199C544.906 384.357 545.409 384.456 545.929 384.498C546.449 384.539 546.865 384.547 547.177 384.521C547.507 384.5 548.009 384.454 548.685 384.382L549.518 384.297L550.376 386.736C547.966 387.119 546.05 387.08 544.629 386.618C543.12 386.128 541.985 385.349 541.222 384.281C540.754 383.6 540.45 382.9 540.312 382.18C540.19 381.448 540.13 380.554 540.13 379.496V374.903L538.413 374.345V372.103L540.13 372.66V368.832ZM561.948 373.652L564.341 374.429C563.821 375.299 563.422 375.981 563.145 376.474C562.884 376.955 562.564 377.625 562.182 378.486C561.801 379.346 561.523 380.204 561.35 381.059C561.177 381.914 561.09 382.807 561.09 383.736C561.09 384.958 561.272 386.293 561.636 387.742C562 389.191 562.356 390.373 562.702 391.288C563.066 392.19 563.613 393.488 564.341 395.183L561.948 394.406C561.931 394.364 561.905 394.31 561.87 394.244C561.836 394.196 561.801 394.139 561.766 394.073C560.813 392.287 560.041 390.368 559.452 388.317C558.862 386.267 558.568 384.466 558.568 382.917C558.568 381.258 558.88 379.609 559.504 377.971C560.145 376.32 560.83 375.03 561.558 374.099C561.593 374.074 561.697 373.953 561.87 373.736L561.948 373.652ZM578.41 388.762L574.639 387.537L577.838 381.084L580.646 381.997L578.41 388.762ZM573.053 387.022L569.308 385.805L572.506 379.352L575.315 380.265L573.053 387.022ZM583.533 382.935L589.566 384.895V387.137L587.694 386.529V390.877L593.519 392.769V388.422L591.646 387.813V385.571L597.68 387.531V389.774L595.781 389.157V400.614L597.68 401.231V403.473L591.646 401.512V399.27L593.519 399.879V395.011L587.694 393.119V397.986L589.566 398.594V400.837L583.533 398.876V396.634L585.431 397.251V385.794L583.533 385.177V382.935ZM612.347 404.301L613.387 406.744C610.96 407.432 608.715 407.441 606.652 406.771C604.571 406.095 602.942 404.936 601.763 403.296C600.584 401.655 599.994 399.923 599.994 398.1C599.994 396.259 600.584 394.883 601.763 393.971C602.959 393.066 604.528 392.928 606.47 393.559C608.394 394.185 609.902 395.276 610.995 396.834C612.104 398.38 612.659 399.891 612.659 401.367C612.659 401.987 612.633 402.535 612.581 403.01L602.387 399.698C602.473 400.108 602.569 400.468 602.673 400.775C602.794 401.069 602.994 401.472 603.271 401.981C603.566 402.496 603.999 402.965 604.571 403.388C605.143 403.811 605.819 404.149 606.6 404.402C608.316 404.96 610.232 404.926 612.347 404.301ZM602.543 397.506L610.266 400.016C609.781 397.944 608.524 396.578 606.496 395.919C604.537 395.283 603.219 395.812 602.543 397.506ZM616.404 392.303L622.931 393.959V409.435L627.3 410.855V413.097L616.3 409.523V407.281L620.669 408.7V395.685L616.612 394.64L616.404 392.303ZM632.007 397.372L638.534 399.029V414.505L642.903 415.925V418.167L631.903 414.593V412.35L636.272 413.77V400.754L632.215 399.71L632.007 397.372ZM646.284 412.976C646.284 411.099 646.891 409.719 648.104 408.837C649.335 407.943 650.974 407.828 653.019 408.493C655.1 409.169 656.738 410.357 657.934 412.059C659.148 413.765 659.755 415.53 659.755 417.353C659.755 419.14 659.165 420.507 657.986 421.454C656.807 422.402 655.152 422.529 653.019 421.837C650.922 421.155 649.275 419.964 648.078 418.262C646.882 416.561 646.284 414.799 646.284 412.976ZM648.676 413.754C648.676 414.938 649.058 416.083 649.821 417.188C650.601 418.28 651.667 419.046 653.019 419.485C654.406 419.936 655.473 419.854 656.218 419.239C656.981 418.63 657.362 417.742 657.362 416.576C657.362 415.409 656.981 414.273 656.218 413.169C655.473 412.07 654.406 411.295 653.019 410.844C651.65 410.399 650.584 410.472 649.821 411.063C649.058 411.654 648.676 412.55 648.676 413.754ZM677.386 413.43L683.368 415.373V417.615L680.871 416.804L681.755 425.431L681.807 425.448L684.46 419.091L686.02 419.598L688.595 427.654L688.647 427.67L689.583 419.635L687.06 418.815V416.573L692.99 418.499V420.742L691.767 420.345L690.077 433.495L688.023 432.827L685.11 423.486L685.058 423.469L682.249 430.951L680.195 430.284L678.635 416.077L677.386 415.672V413.43ZM694.056 428.498C694.056 426.621 694.663 425.241 695.876 424.359C697.107 423.465 698.746 423.35 700.791 424.015C702.872 424.691 704.51 425.879 705.706 427.581C706.92 429.287 707.527 431.052 707.527 432.875C707.527 434.662 706.937 436.029 705.758 436.976C704.579 437.924 702.924 438.051 700.791 437.359C698.694 436.677 697.047 435.486 695.85 433.784C694.654 432.083 694.056 430.321 694.056 428.498ZM696.448 429.276C696.448 430.461 696.83 431.605 697.593 432.71C698.373 433.802 699.439 434.568 700.791 435.007C702.178 435.458 703.245 435.376 703.99 434.761C704.753 434.152 705.134 433.265 705.134 432.098C705.134 430.931 704.753 429.796 703.99 428.691C703.245 427.592 702.178 426.817 700.791 426.366C699.422 425.921 698.356 425.994 697.593 426.585C696.83 427.176 696.448 428.073 696.448 429.276ZM710.439 427.724L715.588 429.397V431.42C716.074 431.086 716.481 430.836 716.811 430.669C717.157 430.508 717.652 430.395 718.293 430.33C718.934 430.247 719.602 430.318 720.295 430.544C720.902 430.741 721.466 431.033 721.986 431.421C722.506 431.809 722.87 432.127 723.078 432.377C723.286 432.627 723.537 432.955 723.832 433.361L721.518 434.468C721.084 433.543 720.53 432.971 719.853 432.751C719.645 432.684 719.42 432.656 719.177 432.668C718.952 432.668 718.726 432.695 718.501 432.75C718.276 432.804 718.042 432.883 717.799 432.986C717.574 433.095 717.366 433.21 717.175 433.33C716.984 433.432 716.785 433.55 716.577 433.683C716.386 433.821 716.23 433.935 716.109 434.023C715.987 434.111 715.875 434.202 715.771 434.296L715.588 434.428V439.541L720.399 441.105V443.347L710.205 440.035V437.792L713.326 438.806V430.904L710.439 429.966V427.724ZM726.589 428.104L733.116 429.76V445.237L737.485 446.656V448.898L726.485 445.324V443.082L730.854 444.501V431.486L726.797 430.441L726.589 428.104ZM746.847 434.796L753.062 436.241V451.717L755.169 452.402V454.644L750.8 453.225V452.076C749.742 452.68 748.477 452.743 747.003 452.264C745.304 451.712 743.865 450.616 742.686 448.975C741.525 447.322 740.944 445.629 740.944 443.897C740.944 442.056 741.551 440.731 742.764 439.922C743.978 439.113 745.373 438.965 746.951 439.478C748.373 439.94 749.656 440.831 750.8 442.15V438.076L746.613 437.044L746.847 434.796ZM750.748 447.11C750.748 446.107 750.418 445.08 749.76 444.027C749.101 442.956 748.191 442.232 747.029 441.855C746.024 441.528 745.157 441.62 744.429 442.131C743.7 442.624 743.336 443.462 743.336 444.647C743.336 445.814 743.692 446.905 744.403 447.919C745.131 448.922 746.006 449.589 747.029 449.921C748.035 450.248 748.901 450.147 749.63 449.618C750.375 449.094 750.748 448.258 750.748 447.11ZM764.791 441.61L764.271 452.488L762.138 451.795L761.644 440.588L764.791 441.61ZM761.592 453.505C762.043 453.232 762.58 453.197 763.204 453.4C763.829 453.602 764.357 453.984 764.791 454.544C765.242 455.11 765.467 455.684 765.467 456.268C765.467 456.869 765.25 457.309 764.817 457.588C764.383 457.866 763.846 457.901 763.204 457.693C762.563 457.484 762.026 457.1 761.592 456.54C761.159 455.98 760.942 455.399 760.942 454.797C760.942 454.214 761.159 453.783 761.592 453.505ZM774.595 445.015L778.34 446.231L775.167 452.693L772.358 451.78L774.595 445.015ZM779.926 446.747L783.671 447.964L780.498 454.425L777.689 453.512L779.926 446.747ZM791.888 469.118L789.47 468.332C789.47 468.332 789.531 468.224 789.652 468.009C790.259 467.003 790.736 466.173 791.082 465.52C791.429 464.867 791.784 463.916 792.149 462.667C792.53 461.424 792.721 460.201 792.721 458.998C792.721 457.795 792.539 456.487 792.175 455.074C791.828 453.649 791.472 452.476 791.108 451.556C790.762 450.641 790.215 449.315 789.47 447.578L791.888 448.364C791.888 448.437 791.914 448.482 791.966 448.499C793.197 450.886 794.047 453.058 794.515 455.014C795 456.977 795.243 458.578 795.243 459.817C795.243 461.914 794.74 464.029 793.735 466.163C793.319 467.012 792.703 467.997 791.888 469.118Z" fill="black"/>
<path id="Vector 1" d="M444.099 311.571V521.036M444.099 626.571V521.036M444.099 521.036L880.634 662.875" stroke="black" stroke-width="2"/>
<path id="Vector 4" d="M328.07 290.871L426.029 322.7" stroke="black" stroke-width="2"/>
<path id="Vector 6" d="M328.07 290.871L426.029 322.7" stroke="black" stroke-width="2"/>
<path id="Vector 5" d="M328.07 310.871L396.546 333.121" stroke="black" stroke-width="2"/>
<path id="Vector 11" d="M328.07 410.871L396.546 433.121" stroke="black" stroke-width="2"/>
<path id="Vector 12" d="M328.07 430.871L426.029 462.7" stroke="black" stroke-width="2"/>
<path id="Vector 9" d="M328.07 370.871L426.029 402.7" stroke="black" stroke-width="2"/>
<path id="Vector 10" d="M328.07 390.871L407.959 416.829" stroke="black" stroke-width="2"/>
<path id="Vector 7" d="M328.07 330.871L407.959 356.829" stroke="black" stroke-width="2"/>
<path id="Vector 8" d="M328.07 350.871L362.308 361.996" stroke="black" stroke-width="2"/>
</g>
<g id="Keyboard">
<g id="Group 5">
<path id="Rectangle 10" d="M150 632L669.615 805.19L519.615 955.177L0 781.987L150 632Z" fill="#FBAFB0"/>
<path id="3 0" d="M150 617L0 766.987V781.987L150 632V617Z" fill="#FBAFB0"/>
<path id="0 1_2" d="M669.615 790.19L150 617V632L669.615 805.19V790.19Z" fill="#FBAFB0"/>
<path id="2 3" d="M0 766.987L519.615 940.177V955.177L0 781.987V766.987Z" fill="#FBAFB0"/>
<path id="1 2" d="M519.615 940.177L669.615 790.19V805.19L519.615 955.177V940.177Z" fill="#FBAFB0"/>
<g id="Group">
<rect id="Rectangle 10_2" width="547.718" height="212.123" transform="matrix(0.948692 0.316203 -0.707138 0.707076 150 617)" fill="#9EC6EB"/>
</g>
</g>
<g id="Group 4">
<g id="Vector">
<path d="M158.5 642L630.484 799.314L610.484 819.313L138.5 661.998L158.5 642Z" fill="#FBAFB0"/>
<path d="M125 675.497L598.716 833.389L578.716 853.387L105 695.495L125 675.497Z" fill="#FBAFB0"/>
<path d="M90.5 709.994L562.484 867.308L542.484 887.307L70.5 729.992L90.5 709.994Z" fill="#FBAFB0"/>
<path d="M166.985 780.15L421.597 865.013L401.597 885.011L146.985 800.148L166.985 780.15Z" fill="#FBAFB0"/>
</g>
<path id="3 0_2" d="M158.5 632L138.5 651.998V661.998L158.5 642V632Z" fill="#FBAFB0"/>
<path id="7 4" d="M125 665.497L105 685.495V695.495L125 675.497V665.497Z" fill="#FBAFB0"/>
<path id="11 8" d="M90.5 699.994L70.5 719.992V729.992L90.5 709.994V699.994Z" fill="#FBAFB0"/>
<path id="0 1_3" d="M630.484 789.314L158.5 632V642L630.484 799.314V789.314Z" fill="#FBAFB0"/>
<path id="2 3_2" d="M138.5 651.998L610.484 809.313V819.313L138.5 661.998V651.998Z" fill="#FBAFB0"/>
<path id="4 5_2" d="M598.716 823.389L125 665.497V675.497L598.716 833.389V823.389Z" fill="#FBAFB0"/>
<path id="6 7" d="M105 685.495L578.716 843.387V853.387L105 695.495V685.495Z" fill="#FBAFB0"/>
<path id="8 9" d="M562.484 857.308L90.5 699.994V709.994L562.484 867.308V857.308Z" fill="#FBAFB0"/>
<path id="15 12" d="M166.985 770.15L146.985 790.148V800.148L166.985 780.15V770.15Z" fill="#FBAFB0"/>
<path id="10 11" d="M70.5 719.992L542.484 877.307V887.307L70.5 729.992V719.992Z" fill="#FBAFB0"/>
<path id="1 2_2" d="M610.484 809.313L630.484 789.314V799.314L610.484 819.313V809.313Z" fill="#FBAFB0"/>
<path id="12 13" d="M421.597 855.013L166.985 770.15V780.15L421.597 865.013V855.013Z" fill="#FBAFB0"/>
<path id="14 15" d="M146.985 790.148L401.597 875.011V885.011L146.985 800.148V790.148Z" fill="#FBAFB0"/>
<path id="5 6" d="M578.716 843.387L598.716 823.389V833.389L578.716 853.387V843.387Z" fill="#FBAFB0"/>
<path id="13 14" d="M401.597 875.011L421.597 855.013V865.013L401.597 885.011V875.011Z" fill="#FBAFB0"/>
<path id="9 10" d="M542.484 877.307L562.484 857.308V867.308L542.484 887.307V877.307Z" fill="#FBAFB0"/>
<g id="Group_2">
<g id="Group 3">
<rect id="Rectangle 11" width="497.51" height="28.283" transform="matrix(0.948692 0.316203 -0.707138 0.707076 158.5 632)" fill="#CAE5FF"/>
<rect id="Rectangle 12" width="499.336" height="28.283" transform="matrix(0.948692 0.316203 -0.707138 0.707076 125 665.497)" fill="#CAE5FF"/>
<rect id="Rectangle 13" width="497.51" height="28.283" transform="matrix(0.948692 0.316203 -0.707138 0.707076 90.5 699.994)" fill="#CAE5FF"/>
<rect id="Rectangle 14" width="268.382" height="28.283" transform="matrix(0.948692 0.316203 -0.707138 0.707076 166.985 770.15)" fill="#CAE5FF"/>
</g>
</g>
</g>
</g>
</g>
<defs>
<linearGradient id="paint0_linear" x1="0" y1="0" x2="101" y2="101" gradientUnits="userSpaceOnUse">
<stop stop-color="#F0B2B2"/>
<stop offset="1" stop-color="#AE4646"/>
</linearGradient>
<clipPath id="clip0">
<rect width="881" height="955" fill="white"/>
</clipPath>
</defs>
</svg>
